<svg width="20" height="20" viewBox="0 0 20 20" fill="none" xmlns="http://www.w3.org/2000/svg">
<path d="M16.6667 2.5C17.1269 2.5 17.5 2.8731 17.5 3.33333V15C17.5 15.4602 17.1269 15.8333 16.6667 15.8333H10.2778L7.16667 18.1667C6.6173 18.5787 5.83333 18.1867 5.83333 17.5V15.8333H3.33333C2.8731 15.8333 2.5 15.4602 2.5 15V3.33333C2.5 2.8731 2.8731 2.5 3.33333 2.5H16.6667ZM15.8333 4.16667H4.16667V14.1667H6.66667C7.1269 14.1667 7.5 14.5398 7.5 15V15.8333L9.5 14.3333C9.64425 14.2251 9.81969 14.1667 10 14.1667H15.8333V4.16667Z" fill="black" fill-opacity="0.9"/>
</svg>
