<svg width="20" height="20" viewBox="0 0 20 20" fill="none" xmlns="http://www.w3.org/2000/svg">
<path d="M5.83325 7.50008V16.6667H14.1666V7.50008H15.8333V17.5001C15.8333 17.9603 15.4602 18.3334 14.9999 18.3334H4.99992C4.53968 18.3334 4.16659 17.9603 4.16659 17.5001V7.50008H5.83325ZM9.16658 7.50008V15.0001H7.49992V7.50008H9.16658ZM12.4999 7.50008V15.0001H10.8333V7.50008H12.4999ZM12.4999 1.66675C12.8586 1.66675 13.1771 1.89627 13.2905 2.23656L13.9333 4.16591L16.6666 4.16675V5.83341H3.33325V4.16675L6.06575 4.16591L6.70935 2.23656C6.82278 1.89627 7.14123 1.66675 7.49992 1.66675H12.4999ZM11.8993 3.33341H8.10055L7.82242 4.16591H12.1766L11.8993 3.33341Z" fill="#D4190F"/>
</svg>
