<svg width="20" height="20" viewBox="0 0 20 20" fill="none" xmlns="http://www.w3.org/2000/svg">
<path d="M13.9226 2.74408L17.2559 6.07741C17.5813 6.40285 17.5813 6.93049 17.2559 7.25592L8.08923 16.4226C7.9729 16.5389 7.82473 16.6182 7.66341 16.6505L3.49674 17.4838C2.91364 17.6004 2.39954 17.0863 2.51616 16.5032L3.34949 12.3366C3.38176 12.1752 3.46105 12.0271 3.57739 11.9107L12.7441 2.74408C13.0695 2.41864 13.5971 2.41864 13.9226 2.74408ZM11.2495 6.595L4.93431 12.9108L4.3956 15.6044L7.08913 15.0657L13.4045 8.75L11.2495 6.595ZM13.3333 4.51184L12.4287 5.41667L14.5828 7.57083L15.4881 6.66667L13.3333 4.51184Z" fill="black" fill-opacity="0.9"/>
</svg>
