<svg width="20" height="20" viewBox="0 0 20 20" fill="none" xmlns="http://www.w3.org/2000/svg">
<g opacity="0.5">
<path d="M10 13C11.6569 13 13 11.6569 13 10C13 8.34315 11.6569 7 10 7C8.34315 7 7 8.34315 7 10C7 11.6569 8.34315 13 10 13Z" stroke="#838999" stroke-width="2" stroke-linecap="round" stroke-linejoin="round"/>
<path d="M13 7.00002V10.75C13 11.3468 13.2371 11.9191 13.659 12.341C14.081 12.763 14.6533 13 15.25 13C15.8467 13 16.419 12.763 16.841 12.341C17.263 11.9191 17.5 11.3468 17.5 10.75V10C17.4999 8.30729 16.9272 6.66438 15.875 5.33842C14.8227 4.01246 13.3529 3.08144 11.7045 2.69675C10.0561 2.31205 8.32596 2.4963 6.79552 3.21955C5.26508 3.94279 4.0243 5.16249 3.27495 6.68032C2.5256 8.19814 2.31173 9.92483 2.66813 11.5796C3.02453 13.2344 3.93024 14.7199 5.23798 15.7947C6.54572 16.8695 8.17858 17.4703 9.87106 17.4994C11.5635 17.5285 13.2161 16.9842 14.56 15.955" stroke="#838999" stroke-width="2" stroke-linecap="round" stroke-linejoin="round"/>
</g>
</svg>
