<svg width="14" height="14" viewBox="0 0 14 14" fill="none" xmlns="http://www.w3.org/2000/svg">
<path fill-rule="evenodd" clip-rule="evenodd" d="M7 1.5C3.96243 1.5 1.5 3.96243 1.5 7C1.5 10.0376 3.96243 12.5 7 12.5C10.0376 12.5 12.5 10.0376 12.5 7C12.5 3.96243 10.0376 1.5 7 1.5ZM0 7C0 3.13401 3.13401 0 7 0C10.866 0 14 3.13401 14 7C14 10.866 10.866 14 7 14C3.13401 14 0 10.866 0 7ZM10.0303 5.21967C10.3232 5.51256 10.3232 5.98744 10.0303 6.28033L6.53033 9.78033C6.23744 10.0732 5.76256 10.0732 5.46967 9.78033L3.96967 8.28033C3.67678 7.98744 3.67678 7.51256 3.96967 7.21967C4.26256 6.92678 4.73744 6.92678 5.03033 7.21967L6 8.18934L8.96967 5.21967C9.26256 4.92678 9.73744 4.92678 10.0303 5.21967Z" fill="#babaff"/>
</svg>
