<svg width="20" height="20" viewBox="0 0 20 20" fill="none" xmlns="http://www.w3.org/2000/svg">
<g opacity="0.5">
<path d="M17 8.36364C17 14.0909 10 19 10 19C10 19 3 14.0909 3 8.36364C3 6.41068 3.7375 4.53771 5.05025 3.15676C6.36301 1.77581 8.14348 1 10 1C11.8565 1 13.637 1.77581 14.9497 3.15676C16.2625 4.53771 17 6.41068 17 8.36364Z" stroke="#838999" stroke-width="2" stroke-linecap="round" stroke-linejoin="round"/>
<path d="M10 10C11.1046 10 12 9.10457 12 8C12 6.89543 11.1046 6 10 6C8.89543 6 8 6.89543 8 8C8 9.10457 8.89543 10 10 10Z" stroke="#838999" stroke-width="2" stroke-linecap="round" stroke-linejoin="round"/>
</g>
</svg>
