<svg width="20" height="20" viewBox="0 0 20 20" fill="none" xmlns="http://www.w3.org/2000/svg">
<path d="M10 10.0454C10.4956 10.0454 10.9184 9.86535 11.2683 9.50534C11.6183 9.14533 11.7933 8.71007 11.7933 8.19957C11.7933 7.68979 11.6183 7.25489 11.2683 6.89488C10.9184 6.53486 10.4956 6.35485 10 6.35485C9.50442 6.35485 9.08165 6.53486 8.73166 6.89488C8.38168 7.25489 8.20669 7.68979 8.20669 8.19957C8.20669 8.71007 8.38168 9.14533 8.73166 9.50534C9.08165 9.86535 9.50442 10.0454 10 10.0454ZM10 16.4803C11.7646 14.8156 13.0662 13.3118 13.9048 11.9689C14.7433 10.6261 15.1626 9.42974 15.1626 8.37994C15.1626 6.74475 14.6667 5.42098 13.6748 4.40862C12.683 3.39626 11.458 2.89008 10 2.89008C8.54197 2.89008 7.31703 3.39626 6.32518 4.40862C5.33333 5.42098 4.83741 6.74475 4.83741 8.37994C4.83741 9.42974 5.25669 10.6261 6.09525 11.9689C6.9338 13.3118 8.23539 14.8156 10 16.4803ZM10 19C7.65232 16.9155 5.8989 15.0031 4.73976 13.2628C3.57992 11.5225 3 9.89488 3 8.37994C3 6.11472 3.69997 4.31825 5.0999 2.99052C6.49983 1.66351 8.13319 1 10 1C11.8668 1 13.5002 1.66351 14.9001 2.99052C16.3 4.31825 17 6.11472 17 8.37994C17 9.89488 16.4201 11.5225 15.2602 13.2628C14.1011 15.0031 12.3477 16.9155 10 19Z" fill="black" fill-opacity="0.5"/>
</svg>
