<svg width="15" height="15" viewBox="0 0 15 15" fill="none" xmlns="http://www.w3.org/2000/svg">
<path fill-rule="evenodd" clip-rule="evenodd" d="M13.5005 12C12.1321 13.8217 9.95361 15 7.5 15C3.35791 15 0 11.6421 0 7.5C0 3.35791 3.35791 0 7.5 0C9.95361 0 12.1321 1.17834 13.5005 3H12.1904C11.0076 1.76733 9.34326 1 7.5 1C3.91016 1 1 3.91016 1 7.5C1 11.0898 3.91016 14 7.5 14C9.34326 14 11.0076 13.2327 12.1904 12H13.5005Z" fill="#495057"/>
<line x1="6" y1="7.5" x2="13" y2="7.5" stroke="#495057"/>
<path d="M15 7.5L13.5 8.36603L12 9.23205L12 7.5L12 5.76795L13.5 6.63397L15 7.5Z" fill="#495057"/>
</svg>
