<svg width="56" height="56" viewBox="0 0 56 56" fill="none" xmlns="http://www.w3.org/2000/svg">
<path d="M56 28C56 12.536 43.464 0 28 0C12.536 0 0 12.536 0 28C0 43.464 12.536 56 28 56C43.464 56 56 43.464 56 28Z" fill="white"/>
<path d="M24.0277 42C23.4922 42 23.0307 41.812 22.6433 41.4361C22.2674 41.06 22.0794 40.6043 22.0794 40.0688C22.0794 39.5333 22.2674 39.0719 22.6433 38.6845C23.0307 38.3086 23.4922 38.1206 24.0277 38.1206C24.5632 38.1206 25.0189 38.3086 25.3949 38.6845C25.7823 39.0719 25.9759 39.5333 25.9759 40.0688C25.9759 40.6043 25.7823 41.06 25.3949 41.4361C25.0189 41.812 24.5632 42 24.0277 42ZM27.9071 42C27.3716 42 26.9159 41.812 26.5398 41.4361C26.1639 41.06 25.9759 40.6043 25.9759 40.0688C25.9759 39.5333 26.1639 39.0719 26.5398 38.6845C26.9159 38.3086 27.3716 38.1206 27.9071 38.1206C28.4539 38.1206 28.9153 38.3086 29.2914 38.6845C29.6673 39.0719 29.8553 39.5333 29.8553 40.0688C29.8553 40.6043 29.6673 41.06 29.2914 41.4361C28.904 41.812 28.4426 42 27.9071 42ZM31.8035 42C31.268 42 30.8123 41.812 30.4363 41.4361C30.0489 41.06 29.8553 40.6043 29.8553 40.0688C29.8553 39.5333 30.0489 39.0719 30.4363 38.6845C30.8123 38.3086 31.268 38.1206 31.8035 38.1206C32.339 38.1206 32.7947 38.3086 33.1708 38.6845C33.5582 39.0719 33.7518 39.5333 33.7518 40.0688C33.7518 40.6043 33.5582 41.06 33.1708 41.4361C32.7947 41.812 32.339 42 31.8035 42ZM20.1312 38.1206C19.5957 38.1206 19.14 37.9326 18.7639 37.5567C18.388 37.1693 18.2 36.7079 18.2 36.1724C18.2 35.6369 18.388 35.1812 18.7639 34.8051C19.14 34.4177 19.5957 34.2241 20.1312 34.2241C20.6667 34.2241 21.1281 34.4177 21.5155 34.8051C21.8914 35.1812 22.0794 35.6369 22.0794 36.1724C22.0794 36.7079 21.8914 37.1693 21.5155 37.5567C21.1281 37.9326 20.6667 38.1206 20.1312 38.1206ZM35.7 38.1206C35.1532 38.1206 34.6917 37.9326 34.3157 37.5567C33.9398 37.1693 33.7518 36.7079 33.7518 36.1724C33.7518 35.6369 33.9398 35.1812 34.3157 34.8051C34.6917 34.4177 35.1532 34.2241 35.7 34.2241C36.2355 34.2241 36.6912 34.4177 37.0673 34.8051C37.4432 35.1812 37.6312 35.6369 37.6312 36.1724C37.6312 36.7079 37.4432 37.1693 37.0673 37.5567C36.6912 37.9326 36.2355 38.1206 35.7 38.1206ZM20.1312 34.2241C19.5957 34.2241 19.14 34.0361 18.7639 33.6602C18.388 33.2842 18.2 32.8285 18.2 32.293C18.2 31.7461 18.388 31.2847 18.7639 30.9086C19.14 30.5327 19.5957 30.3447 20.1312 30.3447C20.6667 30.3447 21.1281 30.5327 21.5155 30.9086C21.8914 31.296 22.0794 31.7575 22.0794 32.293C22.0794 32.8285 21.8914 33.2842 21.5155 33.6602C21.1281 34.0361 20.6667 34.2241 20.1312 34.2241ZM20.1312 30.3447C19.5957 30.3447 19.14 30.1511 18.7639 29.7637C18.388 29.3877 18.2 28.932 18.2 28.3965C18.2 27.861 18.388 27.4053 18.7639 27.0292C19.14 26.6419 19.5957 26.4482 20.1312 26.4482C20.6667 26.4482 21.1281 26.6419 21.5155 27.0292C21.8914 27.4053 22.0794 27.861 22.0794 28.3965C22.0794 28.932 21.8914 29.3877 21.5155 29.7637C21.1281 30.1511 20.6667 30.3447 20.1312 30.3447ZM20.1312 26.4482C19.5957 26.4482 19.14 26.2602 18.7639 25.8843C18.388 25.5083 18.2 25.0468 18.2 24.5C18.2 23.9645 18.388 23.5088 18.7639 23.1328C19.14 22.7569 19.5957 22.5688 20.1312 22.5688C20.6667 22.5688 21.1281 22.7569 21.5155 23.1328C21.8914 23.5088 22.0794 23.9645 22.0794 24.5C22.0794 25.0468 21.8914 25.5083 21.5155 25.8843C21.1281 26.2602 20.6667 26.4482 20.1312 26.4482ZM20.1312 22.5688C19.5957 22.5688 19.14 22.3752 18.7639 21.9878C18.388 21.6118 18.2 21.1561 18.2 20.6206C18.2 20.0851 18.388 19.6294 18.7639 19.2534C19.14 18.866 19.5957 18.6724 20.1312 18.6724C20.6667 18.6724 21.1281 18.866 21.5155 19.2534C21.8914 19.6294 22.0794 20.0851 22.0794 20.6206C22.0794 21.1561 21.8914 21.6118 21.5155 21.9878C21.1281 22.3752 20.6667 22.5688 20.1312 22.5688ZM35.7 22.5688C35.1532 22.5688 34.6917 22.3752 34.3157 21.9878C33.9398 21.6118 33.7518 21.1561 33.7518 20.6206C33.7518 20.0851 33.9398 19.6294 34.3157 19.2534C34.6917 18.866 35.1532 18.6724 35.7 18.6724C36.2355 18.6724 36.6912 18.866 37.0673 19.2534C37.4432 19.6294 37.6312 20.0851 37.6312 20.6206C37.6312 21.1561 37.4432 21.6118 37.0673 21.9878C36.6912 22.3752 36.2355 22.5688 35.7 22.5688ZM24.0277 18.6724C23.4922 18.6724 23.0307 18.4843 22.6433 18.1084C22.2674 17.7211 22.0794 17.2596 22.0794 16.7241C22.0794 16.1886 22.2674 15.7329 22.6433 15.3569C23.0307 14.981 23.4922 14.793 24.0277 14.793C24.5632 14.793 25.0189 14.981 25.3949 15.3569C25.7823 15.7329 25.9759 16.1886 25.9759 16.7241C25.9759 17.271 25.7823 17.7324 25.3949 18.1084C25.0189 18.4843 24.5632 18.6724 24.0277 18.6724ZM27.9071 18.6724C27.3716 18.6724 26.9159 18.4843 26.5398 18.1084C26.1639 17.7211 25.9759 17.2596 25.9759 16.7241C25.9759 16.1886 26.1639 15.7329 26.5398 15.3569C26.9159 14.981 27.3716 14.793 27.9071 14.793C28.4539 14.793 28.9153 14.981 29.2914 15.3569C29.6673 15.7329 29.8553 16.1886 29.8553 16.7241C29.8553 17.271 29.6673 17.7324 29.2914 18.1084C28.904 18.4843 28.4426 18.6724 27.9071 18.6724ZM31.8035 18.6724C31.268 18.6724 30.8123 18.4843 30.4363 18.1084C30.0489 17.7211 29.8553 17.2596 29.8553 16.7241C29.8553 16.1886 30.0489 15.7329 30.4363 15.3569C30.8123 14.981 31.268 14.793 31.8035 14.793C32.339 14.793 32.7947 14.981 33.1708 15.3569C33.5582 15.7329 33.7518 16.1886 33.7518 16.7241C33.7518 17.271 33.5582 17.7324 33.1708 18.1084C32.7947 18.4843 32.339 18.6724 31.8035 18.6724Z" fill="black" fill-opacity="0.8"/>
</svg>
