<svg width="20" height="20" viewBox="0 0 20 20" fill="none" xmlns="http://www.w3.org/2000/svg">
<path fill-rule="evenodd" clip-rule="evenodd" d="M4.72727 2.43263C5.49397 1.66592 6.77708 1.82388 7.33494 2.75365L8.95105 5.44717C9.34452 6.10297 9.24118 6.9424 8.70041 7.48318L7.84507 8.33851C8.01988 8.6969 8.45841 9.38856 9.53745 10.4676C10.6165 11.5467 11.3082 11.9852 11.6666 12.16L12.5219 11.3047C13.0627 10.7639 13.9021 10.6605 14.5579 11.054L17.2514 12.6701C18.1812 13.228 18.3391 14.5111 17.5724 15.2778L15.482 17.3683C15.0183 17.832 14.3488 18.1313 13.615 18.0399C12.1593 17.8587 8.87087 17.1262 5.85299 14.1628C2.80665 11.1715 2.1103 7.82231 1.95168 6.36166C1.8733 5.63985 2.17228 4.98762 2.62583 4.53407L4.72727 2.43263ZM5.90578 3.61114L3.80434 5.71258C3.64578 5.87114 3.59354 6.04295 3.60861 6.18173C3.74225 7.4124 4.34182 10.3431 7.02071 12.9736C9.6934 15.598 12.5903 16.2328 13.8209 16.386C13.9644 16.4039 14.142 16.3512 14.3035 16.1898L16.3939 14.0993L13.7004 12.4832L12.7185 13.4651C12.4358 13.7478 11.9199 14.0273 11.3232 13.8207C10.7452 13.6206 9.79354 13.0807 8.35894 11.6461C6.92432 10.2115 6.38449 9.25989 6.18436 8.68184C5.9778 8.0852 6.25732 7.56924 6.53998 7.28658L7.52189 6.30467L5.90578 3.61114Z" fill="black" fill-opacity="0.5"/>
</svg>
