<svg width="20" height="20" viewBox="0 0 20 20" fill="none" xmlns="http://www.w3.org/2000/svg">
<path d="M16.7729 6.52083L13.2396 2.9875C12.5896 2.3375 11.5313 2.3375 10.8813 2.9875L7.98127 5.87917C7.8146 6.04583 7.38127 6.22917 7.1396 6.22917L4.03127 6.2625C3.22293 6.27083 2.9396 6.74583 2.85627 6.95417C2.77293 7.1625 2.6396 7.70417 3.20627 8.27917L6.74793 11.8208L2.9896 15.5792C2.6646 15.9042 2.6646 16.4292 2.9896 16.7542C3.15627 16.9208 3.3646 16.9958 3.58127 16.9958C3.79793 16.9958 4.00627 16.9125 4.17293 16.7542L7.93127 12.9958L11.4729 16.5375C11.8146 16.8792 12.1396 16.9708 12.3979 16.9708C12.5729 16.9708 12.7146 16.9292 12.7979 16.8958C13.0063 16.8125 13.4896 16.5292 13.4979 15.7125L13.5313 12.6042C13.5313 12.3625 13.7146 11.9292 13.8813 11.7625L16.7729 8.87083C17.4146 8.22083 17.4146 7.17083 16.7729 6.52083ZM12.6979 10.5875C12.2146 11.0708 11.8646 11.9125 11.8563 12.5875L11.8396 14.5458L5.20627 7.9125L7.1646 7.89583C7.8396 7.8875 8.68127 7.5375 9.1646 7.05417L12.0563 4.1625L15.5896 7.69583L12.6979 10.5875Z" fill="black" fill-opacity="0.9"/>
</svg>
