<svg width="20" height="20" viewBox="0 0 20 20" fill="none" xmlns="http://www.w3.org/2000/svg">
<path d="M5.96251 14.3375C5.61035 14.6897 5.03938 14.6897 4.68721 14.3375L1.71226 11.3626C1.36006 11.0104 1.3602 10.4393 1.71256 10.0873C2.06469 9.73545 2.6353 9.73559 2.98726 10.0876L5.32486 12.4252L5.96221 13.0619C6.31466 13.414 6.31479 13.9852 5.96251 14.3375ZM10.7774 14.5974C10.5825 14.7923 10.2667 14.7928 10.0713 14.5985L6.81511 11.3616C6.46165 11.0102 6.46093 10.4386 6.81351 10.0863C7.16512 9.73503 7.73487 9.73516 8.08632 10.0866L10.4249 12.4252L16.9882 5.83882C17.3397 5.48612 17.9107 5.48548 18.2629 5.83741C18.615 6.18913 18.6151 6.7597 18.2632 7.11159L10.7774 14.5974ZM11.0627 9.23735C10.7105 9.58955 10.1394 9.58942 9.78736 9.23705C9.43556 8.88492 9.4357 8.31432 9.78766 7.96235L11.9129 5.83715C12.2648 5.48519 12.8354 5.48505 13.1876 5.83685C13.5399 6.18888 13.5401 6.75995 13.1879 7.11215L11.0627 9.23735Z" fill="white" fill-opacity="0.6"/>
</svg>
