<svg width="20" height="20" viewBox="0 0 20 20" fill="none" xmlns="http://www.w3.org/2000/svg">
<path fill-rule="evenodd" clip-rule="evenodd" d="M10.2438 4.75265C10.2438 4.54385 10.0046 4.42818 9.84146 4.55519L3.10038 9.80183C2.97178 9.90193 2.97179 10.0967 3.10041 10.1968L9.84664 15.446C10.0098 15.573 10.249 15.4573 10.249 15.2486V12.113C10.249 11.6987 10.5848 11.363 10.999 11.363C13.4552 11.363 15.3409 12.2762 16.8311 13.56C16.565 12.1058 16.0067 10.9828 15.2605 10.134C14.1951 8.92194 12.68 8.19253 10.876 7.9056C10.5119 7.84768 10.2438 7.53365 10.2438 7.16491V4.75265ZM8.92016 3.37146C10.0699 2.4766 11.7438 3.29711 11.7438 4.75265V6.54294C13.5537 6.9366 15.1782 7.76839 16.3871 9.14366C17.7387 10.6813 18.5039 12.8224 18.5039 15.5881C18.5039 15.9047 18.3051 16.1872 18.0071 16.2941C17.709 16.4009 17.376 16.3091 17.1748 16.0646C15.813 14.4097 14.1163 13.123 11.749 12.898V15.2486C11.749 16.704 10.0753 17.5245 8.92549 16.6299L2.17926 11.3806C1.2789 10.6801 1.27881 9.3188 2.17908 8.61811L8.92016 3.37146Z" fill="#838999"/>
</svg>
